<svg width="20" height="20" viewBox="0 0 20 20" fill="none" xmlns="http://www.w3.org/2000/svg">
<path d="M14.5272 5.99997H13.4803C13.2526 5.99997 13.0361 6.10934 12.9022 6.29684L9.39326 11.1629L7.80398 8.95756C7.67005 8.77229 7.45576 8.66068 7.22585 8.66068H6.17898C6.03389 8.66068 5.94907 8.82586 6.03389 8.94417L8.81514 12.8013C8.88084 12.893 8.96745 12.9677 9.0678 13.0193C9.16815 13.0708 9.27933 13.0977 9.39215 13.0977C9.50496 13.0977 9.61615 13.0708 9.71649 13.0193C9.81684 12.9677 9.90345 12.893 9.96915 12.8013L14.67 6.28345C14.7571 6.16515 14.6723 5.99997 14.5272 5.99997Z" fill="white"/>
<path d="M10 0C4.47768 0 0 4.47768 0 10C0 15.5223 4.47768 20 10 20C15.5223 20 20 15.5223 20 10C20 4.47768 15.5223 0 10 0ZM10 18.3036C5.41518 18.3036 1.69643 14.5848 1.69643 10C1.69643 5.41518 5.41518 1.69643 10 1.69643C14.5848 1.69643 18.3036 5.41518 18.3036 10C18.3036 14.5848 14.5848 18.3036 10 18.3036Z" fill="white"/>
</svg>
