<svg width="108" height="25" viewBox="0 0 108 25" fill="none" xmlns="http://www.w3.org/2000/svg">
<path d="M97.1294 5.07712C91.5167 5.07712 87.1251 9.4473 87.1251 15.0386C87.1251 20.6298 91.5167 25 97.1294 25C102.742 25 107.134 20.6298 107.134 15.0386C107.112 9.4473 102.721 5.07712 97.1294 5.07712ZM97.1294 20.5227C94.0231 20.5227 91.7524 18.2091 91.7524 15.0386C91.7524 11.8466 94.0017 9.55441 97.1294 9.55441C100.236 9.55441 102.506 11.868 102.506 15.0386C102.485 18.2091 100.236 20.5227 97.1294 20.5227Z" fill="#3721A5"/>
<path d="M22.1937 6.21252L18.509 19.9657L14.3102 6.21252H10.5398L11.9109 10.6255L8.82605 20.6512L4.99143 6.21252H0L5.97687 25H10.647L13.5604 15.7669L16.4953 25H21.1225L27.1208 6.21252H22.1937Z" fill="#3721A5"/>
<path d="M49.443 14.653C49.2717 9.10454 45.2871 5.07712 39.9743 5.07712C34.1046 5.07712 29.8629 9.2545 29.8629 15.0386C29.8629 20.9083 34.0831 25 40.1457 25C42.8449 25 45.1157 24.1859 46.7224 22.6221L42.9306 20.844C42.138 21.2725 41.1525 21.5296 40.21 21.5296C37.5107 21.5296 35.5399 20.1157 34.7901 17.6735L34.5116 16.7524H49.443V14.653ZM34.4902 13.5818L34.7687 12.6607C35.497 10.3256 37.3179 9.04027 39.9315 9.04027C42.4165 9.04027 44.1945 10.3685 44.8158 12.6821L45.0729 13.5818H34.4902Z" fill="#3721A5"/>
<path d="M72.8149 14.653C72.6435 9.10454 68.659 5.07712 63.3462 5.07712C57.4764 5.07712 53.2348 9.2545 53.2348 15.0386C53.2348 20.9083 57.455 25 63.5176 25C66.2168 25 68.4876 24.1859 70.0943 22.6221L66.3025 20.844C65.5099 21.2725 64.5244 21.5296 63.5818 21.5296C60.8826 21.5296 58.9118 20.1157 58.162 17.6735L57.8835 16.7524H72.8149V14.653ZM57.862 13.5818L58.1405 12.6607C58.8689 10.3256 60.6898 9.04027 63.3034 9.04027C65.7884 9.04027 67.5664 10.3685 68.1877 12.6821L68.4447 13.5818H57.862Z" fill="#3721A5"/>
<path d="M82.2408 0H77.6136V25H82.2408V0Z" fill="#3721A5"/>
</svg>
